<svg xmlns="http://www.w3.org/2000/svg" version="1.1" viewBox="0.00 0.00 716.00 716.00">
<g stroke-width="2.00" fill="none" stroke-linecap="butt">
<path stroke="#88344a" vector-effect="non-scaling-stroke" d="
  M 418.51 130.44
  Q 416.19 129.07 409.99 127.25
  Q 402.21 124.98 394.24 123.42
  Q 393.69 123.31 393.63 123.51"
/>
<path stroke="#888091" vector-effect="non-scaling-stroke" d="
  M 393.63 123.51
  Q 393.11 123.27 392.47 123.14
  Q 365.06 117.71 337.25 120.70
  Q 319.52 122.60 301.04 128.21"
/>
<path stroke="#771e47" vector-effect="non-scaling-stroke" d="
  M 301.04 128.21
  Q 298.89 129.16 297.01 129.81
  Q 294.83 130.57 293.61 128.65
  Q 272.77 95.70 240.12 74.41
  C 233.59 70.15 223.31 66.20 215.93 70.91"
/>
<path stroke="#88344a" vector-effect="non-scaling-stroke" d="
  M 215.93 70.91
  Q 211.45 73.81 208.66 79.42
  Q 205.73 85.31 204.53 89.18"
/>
<path stroke="#888091" vector-effect="non-scaling-stroke" d="
  M 204.53 89.18
  Q 186.19 135.83 189.59 185.26
  Q 189.90 189.79 190.71 194.07
  A 0.39 0.39 0.0 0 0 191.41 194.22
  C 199.43 182.65 208.84 172.83 219.29 163.53
  A 2.29 2.27 -21.4 0 0 220.06 161.78
  Q 219.90 151.01 220.16 139.90
  Q 220.27 134.98 221.70 132.36
  C 228.81 119.25 245.67 126.51 254.10 133.66"
/>
<path stroke="#88344a" vector-effect="non-scaling-stroke" d="
  M 254.10 133.66
  Q 262.64 142.53 268.96 153.77"
/>
<path stroke="#888091" vector-effect="non-scaling-stroke" d="
  M 268.96 153.77
  Q 251.89 162.13 242.86 168.61
  C 212.79 190.18 187.80 225.43 176.32 261.71
  Q 172.41 274.03 170.79 282.99
  C 164.19 319.29 170.46 362.00 189.47 394.81
  Q 189.73 395.26 190.20 395.45
  Q 206.75 402.27 223.47 408.63
  C 252.88 419.81 282.06 431.45 310.25 445.26
  C 329.25 454.57 343.36 463.49 356.48 478.55
  A 0.53 0.53 0.0 0 0 357.27 478.57
  C 365.46 469.88 373.98 461.59 384.23 455.43
  Q 402.59 444.41 424.92 435.22"
/>
<path stroke="#6e5b84" vector-effect="non-scaling-stroke" d="
  M 424.92 435.22
  Q 473.65 414.87 523.25 395.76
  Q 524.25 395.38 524.64 394.68
  Q 537.88 370.72 541.86 344.25
  Q 542.83 337.80 543.43 334.91"
/>
<path stroke="#771e47" vector-effect="non-scaling-stroke" d="
  M 543.43 334.91
  Q 549.90 277.97 522.50 227.59
  Q 513.85 211.68 500.01 195.99
  C 485.18 179.19 466.96 163.88 446.05 154.81"
/>
<path stroke="#88344a" vector-effect="non-scaling-stroke" d="
  M 446.05 154.81
  L 446.15 154.14
  Q 446.22 153.68 446.43 153.27
  Q 451.17 143.76 458.37 135.75"
/>
<path stroke="#6e5b84" vector-effect="non-scaling-stroke" d="
  M 458.37 135.75
  C 463.22 130.66 470.90 125.99 477.99 125.14
  C 485.59 124.23 494.31 129.37 494.27 137.50
  Q 494.21 150.11 494.19 162.29
  A 2.48 2.46 20.7 0 0 495.04 164.15
  C 505.33 173.04 515.12 182.61 522.58 193.98
  Q 523.50 195.38 523.70 193.72
  Q 528.16 156.28 518.97 119.51
  Q 515.80 106.79 508.85 88.62"
/>
<path stroke="#771e47" vector-effect="non-scaling-stroke" d="
  M 508.85 88.62
  Q 506.05 79.87 501.42 74.08
  Q 498.34 70.22 494.74 69.31"
/>
<path stroke="#888091" vector-effect="non-scaling-stroke" d="
  M 494.74 69.31
  C 484.83 67.30 477.56 70.72 469.67 75.89
  Q 465.56 78.59 461.63 81.54
  Q 456.92 85.09 452.60 89.11
  Q 432.99 107.37 418.81 130.11
  Q 418.54 130.13 418.51 130.44"
/>
<path stroke="#ee9db6" vector-effect="non-scaling-stroke" d="
  M 494.74 69.31
  Q 482.32 74.73 473.22 82.64"
/>
<path stroke="#ffb3b9" vector-effect="non-scaling-stroke" d="
  M 473.22 82.64
  C 465.02 88.70 457.73 96.87 450.85 104.37
  C 442.99 112.93 435.92 123.19 428.73 132.87
  A 1.55 1.53 27.8 0 1 426.99 133.40
  L 418.51 130.44"
/>
<path stroke="#e48eac" vector-effect="non-scaling-stroke" d="
  M 472.56 116.62
  Q 467.97 121.88 464.26 127.69
  C 462.76 130.04 457.91 132.98 458.37 135.75"
/>
<path stroke="#ed516f" vector-effect="non-scaling-stroke" d="
  M 446.05 154.81
  Q 444.05 156.37 442.86 159.11
  A 2.13 2.12 30.2 0 0 443.54 161.66
  C 449.60 166.14 456.06 170.67 461.41 175.30
  C 492.69 202.39 512.12 240.13 515.61 280.88
  Q 516.39 290.05 516.19 296.34"
/>
<path stroke="#ffb3b9" vector-effect="non-scaling-stroke" d="
  M 516.19 296.34
  C 505.59 287.13 494.07 278.75 481.12 274.05
  Q 479.96 273.63 479.73 272.41
  C 475.89 251.96 466.85 237.36 447.53 228.75
  Q 436.60 223.88 423.93 225.68
  C 406.05 228.21 391.24 242.51 387.08 259.76
  C 384.95 268.59 385.68 281.25 385.76 291.52
  A 0.54 0.54 0.0 0 1 384.91 291.96
  C 370.79 281.93 352.13 279.83 336.37 287.13
  Q 332.23 289.05 328.48 291.32
  A 0.72 0.72 0.0 0 1 327.38 290.69
  C 327.68 277.32 329.13 263.72 323.14 251.37
  C 312.43 229.29 285.18 218.02 262.79 230.02
  C 244.78 239.67 237.46 253.40 232.96 272.79
  A 1.50 1.49 87.1 0 1 232.01 273.85
  C 210.11 281.84 194.42 296.10 182.52 316.01
  Q 180.75 318.98 180.54 315.53
  Q 180.09 308.23 181.16 299.50
  Q 186.65 254.62 212.36 217.60
  C 219.77 206.95 227.95 196.58 237.62 187.87
  C 246.60 179.79 255.93 171.54 266.30 165.29
  Q 274.59 160.31 282.98 155.53
  C 313.58 138.10 349.82 132.87 384.47 138.58
  Q 384.97 138.66 385.19 138.21
  C 387.33 133.72 389.82 127.96 393.35 124.43
  Q 393.56 124.22 393.61 124.01
  Q 393.65 123.79 393.63 123.51"
/>
<path stroke="#d378a9" vector-effect="non-scaling-stroke" d="
  M 508.85 88.62
  C 497.88 93.71 488.66 100.40 479.88 108.55
  C 477.30 110.94 475.03 113.96 472.56 116.62"
/>
<path stroke="#ed516f" vector-effect="non-scaling-stroke" d="
  M 472.56 116.62
  L 470.69 117.96
  Q 470.22 118.30 470.38 117.74
  Q 471.50 113.89 470.97 109.90
  Q 470.91 109.42 471.30 109.14
  Q 471.53 108.96 471.70 108.72
  Q 471.93 108.40 471.91 107.78
  Q 471.85 105.75 472.40 103.85
  Q 472.83 102.38 472.84 101.07
  Q 472.85 99.69 473.05 98.31
  Q 473.12 97.82 473.45 97.44
  Q 475.03 95.65 474.22 93.11
  Q 474.19 93.00 474.09 92.99
  Q 474.03 92.98 473.99 93.01
  Q 473.88 93.07 473.87 92.96
  C 473.63 90.76 475.25 89.43 474.89 86.95
  Q 474.88 86.87 474.94 86.81
  Q 475.05 86.70 475.15 86.59
  A 0.60 0.57 57.2 0 0 475.27 85.98
  Q 474.65 84.21 473.22 82.64"
/>
<path stroke="#d378a9" vector-effect="non-scaling-stroke" d="
  M 543.43 334.91
  Q 540.84 325.96 533.34 316.41
  Q 523.99 304.48 518.53 298.47
  Q 517.67 297.53 516.54 297.24"
/>
<path stroke="#ee9db6" vector-effect="non-scaling-stroke" d="
  M 516.19 296.34
  L 516.54 297.24"
/>
<path stroke="#e5daf2" vector-effect="non-scaling-stroke" d="
  M 516.54 297.24
  C 515.53 305.58 514.76 314.39 512.81 322.15
  Q 508.52 339.18 500.71 355.00
  Q 497.83 360.84 491.46 370.21
  Q 479.40 387.98 465.30 400.29
  C 449.61 413.98 436.53 422.91 420.19 431.46
  A 0.92 0.92 0.0 0 0 420.46 433.19
  Q 423.20 433.63 424.92 435.22"
/>
<path stroke="#ffb3b9" vector-effect="non-scaling-stroke" d="
  M 275.89 149.15
  Q 271.74 150.67 268.96 153.77"
/>
<path stroke="#ffb3b9" vector-effect="non-scaling-stroke" d="
  M 254.10 133.66
  Q 250.22 126.36 245.63 120.14
  Q 235.11 105.89 220.33 96.15
  Q 212.92 91.27 204.53 89.18"
/>
<path stroke="#ee9db6" vector-effect="non-scaling-stroke" d="
  M 301.04 128.21
  Q 298.86 136.67 292.80 142.06
  C 290.50 144.11 285.28 149.15 282.25 148.85
  Q 278.01 148.42 275.89 149.15"
/>
<path stroke="#ed516f" vector-effect="non-scaling-stroke" d="
  M 275.89 149.15
  C 276.33 145.27 278.10 141.43 277.79 137.80
  Q 277.40 133.27 275.84 129.70
  C 267.58 110.82 251.34 93.43 234.82 80.95
  C 230.40 77.62 223.60 72.94 218.19 71.79
  Q 217.72 71.69 217.43 71.30
  Q 216.98 70.73 215.93 70.91"
/>
<path stroke="#6e5b84" vector-effect="non-scaling-stroke" d="
  M 141.70 412.06
  L 141.99 423.04
  A 1.75 1.75 0.0 0 0 143.20 424.66
  Q 182.05 437.38 221.08 450.89
  C 232.43 454.82 244.96 458.73 256.88 462.78
  Q 274.44 468.75 291.92 474.97
  Q 303.89 479.23 315.78 483.71"
/>
<path stroke="#888091" vector-effect="non-scaling-stroke" d="
  M 315.78 483.71
  L 339.18 492.60
  A 0.11 0.11 0.0 0 0 339.30 492.41
  C 327.20 481.07 311.71 471.21 298.75 464.57
  C 288.96 459.55 274.78 453.11 262.49 447.96
  C 228.00 433.53 198.88 422.66 167.14 409.84
  C 163.25 408.27 152.37 403.47 147.78 404.67
  Q 143.11 405.89 141.70 412.06"
/>
<path stroke="#e5daf2" vector-effect="non-scaling-stroke" d="
  M 315.78 483.71
  Q 315.96 483.48 315.65 483.18
  Q 315.36 482.90 315.64 482.62
  Q 315.86 482.40 316.26 482.50
  Q 320.56 483.60 324.70 485.19
  Q 327.78 486.38 329.67 487.09
  Q 333.39 488.51 330.03 486.37
  C 327.76 484.92 325.40 483.35 322.83 482.20
  C 311.70 477.21 302.31 473.40 292.75 470.62
  C 291.74 470.33 291.02 469.43 289.92 469.07
  C 285.99 467.82 281.70 466.65 278.02 464.82
  C 273.18 462.41 268.41 461.16 264.31 459.29
  Q 261.57 458.04 260.73 457.74
  C 240.29 450.68 220.11 442.46 200.07 434.91
  C 189.72 431.01 175.91 425.27 163.58 420.98
  C 156.15 418.39 149.05 415.03 141.70 412.06"
/>
<path stroke="#6e5b84" vector-effect="non-scaling-stroke" d="
  M 380.25 486.88
  Q 377.20 488.49 374.44 491.47
  Q 373.89 492.07 374.66 491.80
  C 413.41 478.14 452.20 464.19 491.26 451.44
  Q 530.62 438.59 571.71 424.40
  A 1.18 1.18 0.0 0 0 572.51 423.28
  L 572.51 412.67"
/>
<path stroke="#888091" vector-effect="non-scaling-stroke" d="
  M 572.51 412.67
  C 572.16 407.67 566.97 402.80 561.73 404.66
  Q 552.17 408.06 542.70 411.72
  C 505.59 426.07 468.37 440.18 431.99 456.22
  Q 405.49 467.89 380.25 486.88"
/>
<path stroke="#e5daf2" vector-effect="non-scaling-stroke" d="
  M 572.51 412.67
  Q 571.44 413.11 570.19 413.39
  Q 568.77 413.70 567.88 414.06
  C 548.75 421.67 529.49 428.80 510.26 436.14
  Q 508.23 436.92 502.24 438.48
  C 501.49 438.68 500.52 439.73 499.57 440.12
  Q 493.89 442.46 488.09 444.45
  Q 481.17 446.81 476.59 448.71
  Q 470.73 451.14 464.84 453.50
  Q 450.32 459.30 435.59 464.53
  Q 431.70 465.91 427.85 467.39
  C 423.13 469.20 417.04 471.17 411.77 473.48
  C 408.25 475.03 404.09 476.20 401.02 477.73
  Q 391.15 482.62 380.25 486.88"
/>
<path stroke="#88344a" vector-effect="non-scaling-stroke" d="
  M 119.17 448.01
  L 119.39 503.76
  A 0.65 0.65 0.0 0 0 120.09 504.40
  C 150.56 502.15 178.75 521.88 185.57 552.13
  C 191.95 580.42 177.85 608.55 151.57 620.31
  A 0.83 0.82 50.8 0 0 151.43 621.73
  Q 174.44 638.34 199.13 651.67
  C 230.41 668.56 265.02 680.41 299.84 687.45
  C 305.06 688.51 310.35 689.15 315.59 689.73
  A 0.89 0.89 0.0 0 0 316.58 688.86
  L 316.86 517.49"
/>
<path stroke="#888091" vector-effect="non-scaling-stroke" d="
  M 316.86 517.49
  L 316.84 506.44
  Q 316.84 505.92 316.34 505.74
  Q 281.92 493.61 247.31 482.02
  Q 189.79 462.77 132.29 443.41
  C 126.15 441.35 121.93 441.86 119.17 448.01"
/>
<path stroke="#ffb3b9" vector-effect="non-scaling-stroke" d="
  M 316.86 517.49
  Q 283.13 506.21 249.95 494.78
  C 234.01 489.28 217.19 484.10 200.90 478.40
  C 183.30 472.24 166.49 466.69 149.27 460.91
  Q 131.25 454.86 120.74 450.47
  Q 119.52 449.95 119.17 448.01"
/>
<path stroke="#771e47" vector-effect="non-scaling-stroke" d="
  M 398.22 512.70
  L 397.90 689.79
  A 0.67 0.66 86.2 0 0 398.65 690.45
  Q 437.55 685.38 474.26 671.58
  Q 481.88 668.71 498.62 661.09
  C 507.06 657.25 515.11 652.61 523.27 648.08
  C 536.90 640.51 550.18 631.98 561.76 622.13
  A 0.84 0.83 37.8 0 0 561.58 620.75
  C 549.10 614.71 541.96 606.61 535.09 594.68
  C 523.14 573.92 525.64 549.91 539.06 530.52
  Q 556.07 505.95 586.00 504.68
  Q 590.31 504.50 593.78 504.20
  Q 595.07 504.09 595.06 502.80
  L 594.78 448.32"
/>
<path stroke="#88344a" vector-effect="non-scaling-stroke" d="
  M 594.78 448.32
  C 592.96 441.72 588.35 441.45 582.77 443.50
  C 569.14 448.53 551.95 453.74 537.51 458.61
  Q 495.35 472.83 453.04 486.62
  Q 441.58 490.36 430.26 494.50
  Q 415.46 499.92 399.60 504.96
  A 1.95 1.94 -8.8 0 0 398.24 506.81
  L 398.22 512.70"
/>
<path stroke="#ed516f" vector-effect="non-scaling-stroke" d="
  M 594.78 448.32
  Q 594.71 449.55 594.24 450.48
  A 1.20 1.20 0.0 0 1 593.53 451.08
  Q 589.15 452.48 584.91 454.21
  Q 580.78 455.90 576.33 456.98
  Q 570.46 458.42 564.76 460.47
  Q 552.43 464.91 540.04 469.17
  Q 523.34 474.90 506.53 480.30
  C 493.29 484.56 478.80 489.84 464.74 494.16
  C 452.62 497.89 441.50 502.38 429.74 505.84
  C 419.88 508.74 410.19 512.11 400.27 515.22
  A 1.35 1.35 0.0 0 1 398.54 514.21
  L 398.22 512.70"
/>
<path stroke="#88344a" vector-effect="non-scaling-stroke" d="
  M 339.30 525.70
  L 339.30 612.20"
/>
<path stroke="#888091" vector-effect="non-scaling-stroke" d="
  M 339.30 612.20
  L 339.33 623.22"
/>
<path stroke="#88344a" vector-effect="non-scaling-stroke" d="
  M 339.33 623.22
  L 339.32 693.39
  A 0.85 0.84 0.3 0 0 340.16 694.23
  L 360.06 694.41"
/>
<path stroke="#771e47" vector-effect="non-scaling-stroke" d="
  M 360.06 694.41
  L 374.00 693.95
  A 0.94 0.93 -1.0 0 0 374.91 693.02
  L 374.88 623.29"
/>
<path stroke="#6e5b84" vector-effect="non-scaling-stroke" d="
  M 374.88 623.29
  L 375.00 612.86"
/>
<path stroke="#771e47" vector-effect="non-scaling-stroke" d="
  M 375.00 612.86
  L 374.67 525.44"
/>
<path stroke="#6e5b84" vector-effect="non-scaling-stroke" d="
  M 374.67 525.44
  L 374.75 515.58
  A 0.53 0.52 -10.1 0 0 374.04 515.09
  Q 367.52 517.46 360.98 518.19"
/>
<path stroke="#888091" vector-effect="non-scaling-stroke" d="
  M 360.98 518.19
  Q 349.93 519.65 340.45 514.97
  A 0.67 0.67 0.0 0 0 339.48 515.56
  L 339.30 525.70"
/>
<path stroke="#e5daf2" vector-effect="non-scaling-stroke" d="
  M 360.98 518.19
  L 361.01 528.13
  Q 361.01 528.63 361.50 528.63
  L 361.95 528.62"
/>
<path stroke="#ee9db6" vector-effect="non-scaling-stroke" d="
  M 361.95 528.62
  L 360.62 528.73"
/>
<path stroke="#ffb3b9" vector-effect="non-scaling-stroke" d="
  M 360.62 528.73
  Q 349.65 529.56 339.30 525.70"
/>
<path stroke="#d378a9" vector-effect="non-scaling-stroke" d="
  M 375.00 612.86
  L 361.21 616.49"
/>
<path stroke="#ed516f" vector-effect="non-scaling-stroke" d="
  M 361.21 616.49
  Q 360.47 616.63 360.12 616.39
  Q 359.83 616.19 359.96 615.54
  C 360.40 613.33 359.91 610.94 359.96 609.16
  C 360.32 595.58 359.86 580.15 359.95 568.51
  Q 360.03 559.18 360.11 549.86
  C 360.15 545.57 359.36 539.01 360.04 533.43
  Q 360.17 532.41 359.84 531.14
  Q 359.27 528.94 360.62 528.73"
/>
<path stroke="#e48eac" vector-effect="non-scaling-stroke" d="
  M 361.21 616.49
  Q 361.14 616.67 360.98 616.70"
/>
<path stroke="#ffb3b9" vector-effect="non-scaling-stroke" d="
  M 360.98 616.70
  Q 349.92 617.24 339.30 612.20"
/>
<path stroke="#d378a9" vector-effect="non-scaling-stroke" d="
  M 374.67 525.44
  Q 368.71 527.96 361.95 528.62"
/>
<path stroke="#d378a9" vector-effect="non-scaling-stroke" d="
  M 374.88 623.29
  C 371.14 624.88 364.28 628.30 360.39 627.79"
/>
<path stroke="#e5daf2" vector-effect="non-scaling-stroke" d="
  M 360.98 616.70
  Q 361.47 622.36 360.39 627.79"
/>
<path stroke="#ee9db6" vector-effect="non-scaling-stroke" d="
  M 360.39 627.79
  Q 359.90 627.75 359.75 628.08"
/>
<path stroke="#ffb3b9" vector-effect="non-scaling-stroke" d="
  M 359.75 628.08
  C 352.85 628.09 345.97 625.37 339.33 623.22"
/>
<path stroke="#ed516f" vector-effect="non-scaling-stroke" d="
  M 359.75 628.08
  Q 359.90 627.93 360.08 627.91
  Q 360.48 627.87 360.47 628.27
  C 360.19 637.15 359.73 646.12 359.80 654.89
  C 359.88 665.20 360.11 675.48 359.84 685.80
  Q 359.72 690.10 360.06 694.41"
/>
<path stroke="#6e5b84" vector-effect="non-scaling-stroke" d="
  M 120.98 596.39
  L 127.48 602.41
  A 2.17 2.16 -25.3 0 0 129.09 602.98
  C 142.92 602.09 155.83 592.02 160.64 579.04
  C 166.18 564.09 161.09 548.22 149.56 537.42"
/>
<path stroke="#888091" vector-effect="non-scaling-stroke" d="
  M 149.56 537.42
  C 128.32 519.25 98.42 529.38 88.69 554.49
  C 87.07 558.67 89.27 561.95 91.87 564.85
  Q 99.95 573.84 120.98 596.39"
/>
<path stroke="#e5daf2" vector-effect="non-scaling-stroke" d="
  M 149.56 537.42
  Q 150.41 540.58 152.59 543.06
  A 1.70 1.67 -72.1 0 1 153.00 543.88
  C 154.18 549.92 155.27 553.89 153.49 560.71
  C 149.94 574.27 139.87 584.39 128.45 591.42
  Q 123.40 594.53 120.98 596.39"
/>
<path stroke="#6e5b84" vector-effect="non-scaling-stroke" d="
  M 577.16 602.16
  C 581.59 603.78 585.36 604.94 587.90 602.15
  Q 608.63 579.47 624.07 561.56
  C 625.39 560.03 627.53 557.16 626.52 555.03
  Q 623.34 548.36 619.90 543.72"
/>
<path stroke="#888091" vector-effect="non-scaling-stroke" d="
  M 619.90 543.72
  C 595.02 513.51 547.73 530.69 551.98 570.63
  Q 552.99 580.12 557.89 587.10
  Q 565.23 597.57 577.16 602.16"
/>
<path stroke="#e5daf2" vector-effect="non-scaling-stroke" d="
  M 619.90 543.72
  Q 612.61 553.60 605.45 563.52
  Q 604.42 564.95 594.21 580.05
  Q 586.45 591.53 577.16 602.16"
/>
<path stroke="#888091" vector-effect="non-scaling-stroke" d="
  M 449.1632 284.0829
  A 19.65 19.31 20.1 0 0 437.3461 259.1961
  A 19.65 19.31 20.1 0 0 412.2568 270.5771
  A 19.65 19.31 20.1 0 0 424.0739 295.4639
  A 19.65 19.31 20.1 0 0 449.1632 284.0829"
/>
<path stroke="#888091" vector-effect="non-scaling-stroke" d="
  M 301.94 277.34
  A 19.36 19.36 0.0 0 0 282.58 257.98
  A 19.36 19.36 0.0 0 0 263.22 277.34
  A 19.36 19.36 0.0 0 0 282.58 296.70
  A 19.36 19.36 0.0 0 0 301.94 277.34"
/>
<path stroke="#ffb3b9" vector-effect="non-scaling-stroke" d="
  M 330.50 391.52
  Q 333.40 401.01 341.73 406.27
  C 357.85 416.45 376.80 408.50 383.43 391.25"
/>
<path stroke="#888091" vector-effect="non-scaling-stroke" d="
  M 383.43 391.25
  C 394.96 391.38 403.68 390.16 413.24 382.26
  C 418.57 377.84 425.06 369.28 424.29 361.97
  C 423.75 356.88 419.40 351.08 413.82 352.61
  C 407.66 354.29 407.73 360.33 404.26 364.44
  C 395.42 374.93 379.58 374.86 370.53 364.71
  C 365.28 358.81 366.49 351.94 366.51 344.91
  Q 366.51 344.43 366.98 344.40
  Q 380.07 343.53 386.62 334.44
  C 398.12 318.48 387.55 298.87 368.25 298.81
  Q 355.88 298.77 343.50 298.80
  C 331.71 298.83 321.63 308.72 322.50 320.80
  C 323.34 332.50 332.80 344.23 345.84 343.89
  A 0.92 0.91 -2.6 0 1 346.78 344.74
  C 347.15 350.25 347.51 356.69 345.13 361.50
  C 339.00 373.91 318.90 376.04 309.95 365.60
  C 306.46 361.53 304.74 353.67 298.76 352.71
  Q 294.94 352.09 292.34 354.34
  C 287.13 358.84 288.00 366.33 291.20 371.78
  C 299.49 385.90 314.43 392.41 330.50 391.52"
/>
<path stroke="#88344a" vector-effect="non-scaling-stroke" d="
  M 383.43 391.25
  C 372.76 390.34 363.94 386.65 357.42 378.06
  A 0.69 0.68 45.9 0 0 356.34 378.04
  C 349.35 386.65 341.22 389.66 330.50 391.52"
/>
<path stroke="#888091" vector-effect="non-scaling-stroke" d="
  M 345.2284 320.9990
  A 8.28 7.93 66.6 0 0 349.2178 310.2506
  A 8.28 7.93 66.6 0 0 338.6516 305.8010
  A 8.28 7.93 66.6 0 0 334.6622 316.5494
  A 8.28 7.93 66.6 0 0 345.2284 320.9990"
/>
</g>
<path fill="#110122" d="
  M 349.30 0.00
  L 366.85 0.00
  C 483.80 3.41 593.17 63.04 657.24 161.39
  Q 712.69 246.51 716.00 349.31
  L 716.00 367.00
  C 710.36 558.72 558.03 710.28 366.67 716.00
  L 349.40 716.00
  C 232.67 712.70 123.18 653.23 59.05 555.06
  Q 3.33 469.78 0.00 366.71
  L 0.00 349.14
  C 3.54 239.16 55.70 135.87 144.54 70.55
  Q 235.23 3.87 349.30 0.00
  Z
  M 418.51 130.44
  Q 416.19 129.07 409.99 127.25
  Q 402.21 124.98 394.24 123.42
  Q 393.69 123.31 393.63 123.51
  Q 393.11 123.27 392.47 123.14
  Q 365.06 117.71 337.25 120.70
  Q 319.52 122.60 301.04 128.21
  Q 298.89 129.16 297.01 129.81
  Q 294.83 130.57 293.61 128.65
  Q 272.77 95.70 240.12 74.41
  C 233.59 70.15 223.31 66.20 215.93 70.91
  Q 211.45 73.81 208.66 79.42
  Q 205.73 85.31 204.53 89.18
  Q 186.19 135.83 189.59 185.26
  Q 189.90 189.79 190.71 194.07
  A 0.39 0.39 0.0 0 0 191.41 194.22
  C 199.43 182.65 208.84 172.83 219.29 163.53
  A 2.29 2.27 -21.4 0 0 220.06 161.78
  Q 219.90 151.01 220.16 139.90
  Q 220.27 134.98 221.70 132.36
  C 228.81 119.25 245.67 126.51 254.10 133.66
  Q 262.64 142.53 268.96 153.77
  Q 251.89 162.13 242.86 168.61
  C 212.79 190.18 187.80 225.43 176.32 261.71
  Q 172.41 274.03 170.79 282.99
  C 164.19 319.29 170.46 362.00 189.47 394.81
  Q 189.73 395.26 190.20 395.45
  Q 206.75 402.27 223.47 408.63
  C 252.88 419.81 282.06 431.45 310.25 445.26
  C 329.25 454.57 343.36 463.49 356.48 478.55
  A 0.53 0.53 0.0 0 0 357.27 478.57
  C 365.46 469.88 373.98 461.59 384.23 455.43
  Q 402.59 444.41 424.92 435.22
  Q 473.65 414.87 523.25 395.76
  Q 524.25 395.38 524.64 394.68
  Q 537.88 370.72 541.86 344.25
  Q 542.83 337.80 543.43 334.91
  Q 549.90 277.97 522.50 227.59
  Q 513.85 211.68 500.01 195.99
  C 485.18 179.19 466.96 163.88 446.05 154.81
  L 446.15 154.14
  Q 446.22 153.68 446.43 153.27
  Q 451.17 143.76 458.37 135.75
  C 463.22 130.66 470.90 125.99 477.99 125.14
  C 485.59 124.23 494.31 129.37 494.27 137.50
  Q 494.21 150.11 494.19 162.29
  A 2.48 2.46 20.7 0 0 495.04 164.15
  C 505.33 173.04 515.12 182.61 522.58 193.98
  Q 523.50 195.38 523.70 193.72
  Q 528.16 156.28 518.97 119.51
  Q 515.80 106.79 508.85 88.62
  Q 506.05 79.87 501.42 74.08
  Q 498.34 70.22 494.74 69.31
  C 484.83 67.30 477.56 70.72 469.67 75.89
  Q 465.56 78.59 461.63 81.54
  Q 456.92 85.09 452.60 89.11
  Q 432.99 107.37 418.81 130.11
  Q 418.54 130.13 418.51 130.44
  Z
  M 141.70 412.06
  L 141.99 423.04
  A 1.75 1.75 0.0 0 0 143.20 424.66
  Q 182.05 437.38 221.08 450.89
  C 232.43 454.82 244.96 458.73 256.88 462.78
  Q 274.44 468.75 291.92 474.97
  Q 303.89 479.23 315.78 483.71
  L 339.18 492.60
  A 0.11 0.11 0.0 0 0 339.30 492.41
  C 327.20 481.07 311.71 471.21 298.75 464.57
  C 288.96 459.55 274.78 453.11 262.49 447.96
  C 228.00 433.53 198.88 422.66 167.14 409.84
  C 163.25 408.27 152.37 403.47 147.78 404.67
  Q 143.11 405.89 141.70 412.06
  Z
  M 380.25 486.88
  Q 377.20 488.49 374.44 491.47
  Q 373.89 492.07 374.66 491.80
  C 413.41 478.14 452.20 464.19 491.26 451.44
  Q 530.62 438.59 571.71 424.40
  A 1.18 1.18 0.0 0 0 572.51 423.28
  L 572.51 412.67
  C 572.16 407.67 566.97 402.80 561.73 404.66
  Q 552.17 408.06 542.70 411.72
  C 505.59 426.07 468.37 440.18 431.99 456.22
  Q 405.49 467.89 380.25 486.88
  Z
  M 119.17 448.01
  L 119.39 503.76
  A 0.65 0.65 0.0 0 0 120.09 504.40
  C 150.56 502.15 178.75 521.88 185.57 552.13
  C 191.95 580.42 177.85 608.55 151.57 620.31
  A 0.83 0.82 50.8 0 0 151.43 621.73
  Q 174.44 638.34 199.13 651.67
  C 230.41 668.56 265.02 680.41 299.84 687.45
  C 305.06 688.51 310.35 689.15 315.59 689.73
  A 0.89 0.89 0.0 0 0 316.58 688.86
  L 316.86 517.49
  L 316.84 506.44
  Q 316.84 505.92 316.34 505.74
  Q 281.92 493.61 247.31 482.02
  Q 189.79 462.77 132.29 443.41
  C 126.15 441.35 121.93 441.86 119.17 448.01
  Z
  M 398.22 512.70
  L 397.90 689.79
  A 0.67 0.66 86.2 0 0 398.65 690.45
  Q 437.55 685.38 474.26 671.58
  Q 481.88 668.71 498.62 661.09
  C 507.06 657.25 515.11 652.61 523.27 648.08
  C 536.90 640.51 550.18 631.98 561.76 622.13
  A 0.84 0.83 37.8 0 0 561.58 620.75
  C 549.10 614.71 541.96 606.61 535.09 594.68
  C 523.14 573.92 525.64 549.91 539.06 530.52
  Q 556.07 505.95 586.00 504.68
  Q 590.31 504.50 593.78 504.20
  Q 595.07 504.09 595.06 502.80
  L 594.78 448.32
  C 592.96 441.72 588.35 441.45 582.77 443.50
  C 569.14 448.53 551.95 453.74 537.51 458.61
  Q 495.35 472.83 453.04 486.62
  Q 441.58 490.36 430.26 494.50
  Q 415.46 499.92 399.60 504.96
  A 1.95 1.94 -8.8 0 0 398.24 506.81
  L 398.22 512.70
  Z
  M 339.30 525.70
  L 339.30 612.20
  L 339.33 623.22
  L 339.32 693.39
  A 0.85 0.84 0.3 0 0 340.16 694.23
  L 360.06 694.41
  L 374.00 693.95
  A 0.94 0.93 -1.0 0 0 374.91 693.02
  L 374.88 623.29
  L 375.00 612.86
  L 374.67 525.44
  L 374.75 515.58
  A 0.53 0.52 -10.1 0 0 374.04 515.09
  Q 367.52 517.46 360.98 518.19
  Q 349.93 519.65 340.45 514.97
  A 0.67 0.67 0.0 0 0 339.48 515.56
  L 339.30 525.70
  Z
  M 120.98 596.39
  L 127.48 602.41
  A 2.17 2.16 -25.3 0 0 129.09 602.98
  C 142.92 602.09 155.83 592.02 160.64 579.04
  C 166.18 564.09 161.09 548.22 149.56 537.42
  C 128.32 519.25 98.42 529.38 88.69 554.49
  C 87.07 558.67 89.27 561.95 91.87 564.85
  Q 99.95 573.84 120.98 596.39
  Z
  M 577.16 602.16
  C 581.59 603.78 585.36 604.94 587.90 602.15
  Q 608.63 579.47 624.07 561.56
  C 625.39 560.03 627.53 557.16 626.52 555.03
  Q 623.34 548.36 619.90 543.72
  C 595.02 513.51 547.73 530.69 551.98 570.63
  Q 552.99 580.12 557.89 587.10
  Q 565.23 597.57 577.16 602.16
  Z"
/>
<path fill="#ffffff" d="
  M 494.74 69.31
  Q 482.32 74.73 473.22 82.64
  C 465.02 88.70 457.73 96.87 450.85 104.37
  C 442.99 112.93 435.92 123.19 428.73 132.87
  A 1.55 1.53 27.8 0 1 426.99 133.40
  L 418.51 130.44
  Q 418.54 130.13 418.81 130.11
  Q 432.99 107.37 452.60 89.11
  Q 456.92 85.09 461.63 81.54
  Q 465.56 78.59 469.67 75.89
  C 477.56 70.72 484.83 67.30 494.74 69.31
  Z"
/>
<path fill="#dc3b6c" d="
  M 301.04 128.21
  Q 298.86 136.67 292.80 142.06
  C 290.50 144.11 285.28 149.15 282.25 148.85
  Q 278.01 148.42 275.89 149.15
  C 276.33 145.27 278.10 141.43 277.79 137.80
  Q 277.40 133.27 275.84 129.70
  C 267.58 110.82 251.34 93.43 234.82 80.95
  C 230.40 77.62 223.60 72.94 218.19 71.79
  Q 217.72 71.69 217.43 71.30
  Q 216.98 70.73 215.93 70.91
  C 223.31 66.20 233.59 70.15 240.12 74.41
  Q 272.77 95.70 293.61 128.65
  Q 294.83 130.57 297.01 129.81
  Q 298.89 129.16 301.04 128.21
  Z"
/>
<path fill="#dc3b6c" d="
  M 494.74 69.31
  Q 498.34 70.22 501.42 74.08
  Q 506.05 79.87 508.85 88.62
  C 497.88 93.71 488.66 100.40 479.88 108.55
  C 477.30 110.94 475.03 113.96 472.56 116.62
  L 470.69 117.96
  Q 470.22 118.30 470.38 117.74
  Q 471.50 113.89 470.97 109.90
  Q 470.91 109.42 471.30 109.14
  Q 471.53 108.96 471.70 108.72
  Q 471.93 108.40 471.91 107.78
  Q 471.85 105.75 472.40 103.85
  Q 472.83 102.38 472.84 101.07
  Q 472.85 99.69 473.05 98.31
  Q 473.12 97.82 473.45 97.44
  Q 475.03 95.65 474.22 93.11
  Q 474.19 93.00 474.09 92.99
  Q 474.03 92.98 473.99 93.01
  Q 473.88 93.07 473.87 92.96
  C 473.63 90.76 475.25 89.43 474.89 86.95
  Q 474.88 86.87 474.94 86.81
  Q 475.05 86.70 475.15 86.59
  A 0.60 0.57 57.2 0 0 475.27 85.98
  Q 474.65 84.21 473.22 82.64
  Q 482.32 74.73 494.74 69.31
  Z"
/>
<path fill="#fe6672" d="
  M 215.93 70.91
  Q 216.98 70.73 217.43 71.30
  Q 217.72 71.69 218.19 71.79
  C 223.60 72.94 230.40 77.62 234.82 80.95
  C 251.34 93.43 267.58 110.82 275.84 129.70
  Q 277.40 133.27 277.79 137.80
  C 278.10 141.43 276.33 145.27 275.89 149.15
  Q 271.74 150.67 268.96 153.77
  Q 262.64 142.53 254.10 133.66
  Q 250.22 126.36 245.63 120.14
  Q 235.11 105.89 220.33 96.15
  Q 212.92 91.27 204.53 89.18
  Q 205.73 85.31 208.66 79.42
  Q 211.45 73.81 215.93 70.91
  Z"
/>
<path fill="#fe6672" d="
  M 473.22 82.64
  Q 474.65 84.21 475.27 85.98
  A 0.60 0.57 57.2 0 1 475.15 86.59
  Q 475.05 86.70 474.94 86.81
  Q 474.88 86.87 474.89 86.95
  C 475.25 89.43 473.63 90.76 473.87 92.96
  Q 473.88 93.07 473.99 93.01
  Q 474.03 92.98 474.09 92.99
  Q 474.19 93.00 474.22 93.11
  Q 475.03 95.65 473.45 97.44
  Q 473.12 97.82 473.05 98.31
  Q 472.85 99.69 472.84 101.07
  Q 472.83 102.38 472.40 103.85
  Q 471.85 105.75 471.91 107.78
  Q 471.93 108.40 471.70 108.72
  Q 471.53 108.96 471.30 109.14
  Q 470.91 109.42 470.97 109.90
  Q 471.50 113.89 470.38 117.74
  Q 470.22 118.30 470.69 117.96
  L 472.56 116.62
  Q 467.97 121.88 464.26 127.69
  C 462.76 130.04 457.91 132.98 458.37 135.75
  Q 451.17 143.76 446.43 153.27
  Q 446.22 153.68 446.15 154.14
  L 446.05 154.81
  Q 444.05 156.37 442.86 159.11
  A 2.13 2.12 30.2 0 0 443.54 161.66
  C 449.60 166.14 456.06 170.67 461.41 175.30
  C 492.69 202.39 512.12 240.13 515.61 280.88
  Q 516.39 290.05 516.19 296.34
  C 505.59 287.13 494.07 278.75 481.12 274.05
  Q 479.96 273.63 479.73 272.41
  C 475.89 251.96 466.85 237.36 447.53 228.75
  Q 436.60 223.88 423.93 225.68
  C 406.05 228.21 391.24 242.51 387.08 259.76
  C 384.95 268.59 385.68 281.25 385.76 291.52
  A 0.54 0.54 0.0 0 1 384.91 291.96
  C 370.79 281.93 352.13 279.83 336.37 287.13
  Q 332.23 289.05 328.48 291.32
  A 0.72 0.72 0.0 0 1 327.38 290.69
  C 327.68 277.32 329.13 263.72 323.14 251.37
  C 312.43 229.29 285.18 218.02 262.79 230.02
  C 244.78 239.67 237.46 253.40 232.96 272.79
  A 1.50 1.49 87.1 0 1 232.01 273.85
  C 210.11 281.84 194.42 296.10 182.52 316.01
  Q 180.75 318.98 180.54 315.53
  Q 180.09 308.23 181.16 299.50
  Q 186.65 254.62 212.36 217.60
  C 219.77 206.95 227.95 196.58 237.62 187.87
  C 246.60 179.79 255.93 171.54 266.30 165.29
  Q 274.59 160.31 282.98 155.53
  C 313.58 138.10 349.82 132.87 384.47 138.58
  Q 384.97 138.66 385.19 138.21
  C 387.33 133.72 389.82 127.96 393.35 124.43
  Q 393.56 124.22 393.61 124.01
  Q 393.65 123.79 393.63 123.51
  Q 393.69 123.31 394.24 123.42
  Q 402.21 124.98 409.99 127.25
  Q 416.19 129.07 418.51 130.44
  L 426.99 133.40
  A 1.55 1.53 27.8 0 0 428.73 132.87
  C 435.92 123.19 442.99 112.93 450.85 104.37
  C 457.73 96.87 465.02 88.70 473.22 82.64
  Z"
/>
<path fill="#cab5e5" d="
  M 508.85 88.62
  Q 515.80 106.79 518.97 119.51
  Q 528.16 156.28 523.70 193.72
  Q 523.50 195.38 522.58 193.98
  C 515.12 182.61 505.33 173.04 495.04 164.15
  A 2.48 2.46 20.7 0 1 494.19 162.29
  Q 494.21 150.11 494.27 137.50
  C 494.31 129.37 485.59 124.23 477.99 125.14
  C 470.90 125.99 463.22 130.66 458.37 135.75
  C 457.91 132.98 462.76 130.04 464.26 127.69
  Q 467.97 121.88 472.56 116.62
  C 475.03 113.96 477.30 110.94 479.88 108.55
  C 488.66 100.40 497.88 93.71 508.85 88.62
  Z"
/>
<path fill="#ffffff" d="
  M 254.10 133.66
  C 245.67 126.51 228.81 119.25 221.70 132.36
  Q 220.27 134.98 220.16 139.90
  Q 219.90 151.01 220.06 161.78
  A 2.29 2.27 -21.4 0 1 219.29 163.53
  C 208.84 172.83 199.43 182.65 191.41 194.22
  A 0.39 0.39 0.0 0 1 190.71 194.07
  Q 189.90 189.79 189.59 185.26
  Q 186.19 135.83 204.53 89.18
  Q 212.92 91.27 220.33 96.15
  Q 235.11 105.89 245.63 120.14
  Q 250.22 126.36 254.10 133.66
  Z"
/>
<path fill="#ffffff" d="
  M 393.63 123.51
  Q 393.65 123.79 393.61 124.01
  Q 393.56 124.22 393.35 124.43
  C 389.82 127.96 387.33 133.72 385.19 138.21
  Q 384.97 138.66 384.47 138.58
  C 349.82 132.87 313.58 138.10 282.98 155.53
  Q 274.59 160.31 266.30 165.29
  C 255.93 171.54 246.60 179.79 237.62 187.87
  C 227.95 196.58 219.77 206.95 212.36 217.60
  Q 186.65 254.62 181.16 299.50
  Q 180.09 308.23 180.54 315.53
  Q 180.75 318.98 182.52 316.01
  C 194.42 296.10 210.11 281.84 232.01 273.85
  A 1.50 1.49 87.1 0 0 232.96 272.79
  C 237.46 253.40 244.78 239.67 262.79 230.02
  C 285.18 218.02 312.43 229.29 323.14 251.37
  C 329.13 263.72 327.68 277.32 327.38 290.69
  A 0.72 0.72 0.0 0 0 328.48 291.32
  Q 332.23 289.05 336.37 287.13
  C 352.13 279.83 370.79 281.93 384.91 291.96
  A 0.54 0.54 0.0 0 0 385.76 291.52
  C 385.68 281.25 384.95 268.59 387.08 259.76
  C 391.24 242.51 406.05 228.21 423.93 225.68
  Q 436.60 223.88 447.53 228.75
  C 466.85 237.36 475.89 251.96 479.73 272.41
  Q 479.96 273.63 481.12 274.05
  C 494.07 278.75 505.59 287.13 516.19 296.34
  L 516.54 297.24
  C 515.53 305.58 514.76 314.39 512.81 322.15
  Q 508.52 339.18 500.71 355.00
  Q 497.83 360.84 491.46 370.21
  Q 479.40 387.98 465.30 400.29
  C 449.61 413.98 436.53 422.91 420.19 431.46
  A 0.92 0.92 0.0 0 0 420.46 433.19
  Q 423.20 433.63 424.92 435.22
  Q 402.59 444.41 384.23 455.43
  C 373.98 461.59 365.46 469.88 357.27 478.57
  A 0.53 0.53 0.0 0 1 356.48 478.55
  C 343.36 463.49 329.25 454.57 310.25 445.26
  C 282.06 431.45 252.88 419.81 223.47 408.63
  Q 206.75 402.27 190.20 395.45
  Q 189.73 395.26 189.47 394.81
  C 170.46 362.00 164.19 319.29 170.79 282.99
  Q 172.41 274.03 176.32 261.71
  C 187.80 225.43 212.79 190.18 242.86 168.61
  Q 251.89 162.13 268.96 153.77
  Q 271.74 150.67 275.89 149.15
  Q 278.01 148.42 282.25 148.85
  C 285.28 149.15 290.50 144.11 292.80 142.06
  Q 298.86 136.67 301.04 128.21
  Q 319.52 122.60 337.25 120.70
  Q 365.06 117.71 392.47 123.14
  Q 393.11 123.27 393.63 123.51
  Z
  M 449.1632 284.0829
  A 19.65 19.31 20.1 0 0 437.3461 259.1961
  A 19.65 19.31 20.1 0 0 412.2568 270.5771
  A 19.65 19.31 20.1 0 0 424.0739 295.4639
  A 19.65 19.31 20.1 0 0 449.1632 284.0829
  Z
  M 301.94 277.34
  A 19.36 19.36 0.0 0 0 282.58 257.98
  A 19.36 19.36 0.0 0 0 263.22 277.34
  A 19.36 19.36 0.0 0 0 282.58 296.70
  A 19.36 19.36 0.0 0 0 301.94 277.34
  Z
  M 330.50 391.52
  Q 333.40 401.01 341.73 406.27
  C 357.85 416.45 376.80 408.50 383.43 391.25
  C 394.96 391.38 403.68 390.16 413.24 382.26
  C 418.57 377.84 425.06 369.28 424.29 361.97
  C 423.75 356.88 419.40 351.08 413.82 352.61
  C 407.66 354.29 407.73 360.33 404.26 364.44
  C 395.42 374.93 379.58 374.86 370.53 364.71
  C 365.28 358.81 366.49 351.94 366.51 344.91
  Q 366.51 344.43 366.98 344.40
  Q 380.07 343.53 386.62 334.44
  C 398.12 318.48 387.55 298.87 368.25 298.81
  Q 355.88 298.77 343.50 298.80
  C 331.71 298.83 321.63 308.72 322.50 320.80
  C 323.34 332.50 332.80 344.23 345.84 343.89
  A 0.92 0.91 -2.6 0 1 346.78 344.74
  C 347.15 350.25 347.51 356.69 345.13 361.50
  C 339.00 373.91 318.90 376.04 309.95 365.60
  C 306.46 361.53 304.74 353.67 298.76 352.71
  Q 294.94 352.09 292.34 354.34
  C 287.13 358.84 288.00 366.33 291.20 371.78
  C 299.49 385.90 314.43 392.41 330.50 391.52
  Z"
/>
<path fill="#dc3b6c" d="
  M 446.05 154.81
  C 466.96 163.88 485.18 179.19 500.01 195.99
  Q 513.85 211.68 522.50 227.59
  Q 549.90 277.97 543.43 334.91
  Q 540.84 325.96 533.34 316.41
  Q 523.99 304.48 518.53 298.47
  Q 517.67 297.53 516.54 297.24
  L 516.19 296.34
  Q 516.39 290.05 515.61 280.88
  C 512.12 240.13 492.69 202.39 461.41 175.30
  C 456.06 170.67 449.60 166.14 443.54 161.66
  A 2.13 2.12 30.2 0 1 442.86 159.11
  Q 444.05 156.37 446.05 154.81
  Z"
/>
<ellipse fill="#110122" cx="0.00" cy="0.00" transform="translate(430.71,277.33) rotate(20.1)" rx="19.65" ry="19.31"/>
<circle fill="#110122" cx="282.58" cy="277.34" r="19.36"/>
<path fill="#cab5e5" d="
  M 516.54 297.24
  Q 517.67 297.53 518.53 298.47
  Q 523.99 304.48 533.34 316.41
  Q 540.84 325.96 543.43 334.91
  Q 542.83 337.80 541.86 344.25
  Q 537.88 370.72 524.64 394.68
  Q 524.25 395.38 523.25 395.76
  Q 473.65 414.87 424.92 435.22
  Q 423.20 433.63 420.46 433.19
  A 0.92 0.92 0.0 0 1 420.19 431.46
  C 436.53 422.91 449.61 413.98 465.30 400.29
  Q 479.40 387.98 491.46 370.21
  Q 497.83 360.84 500.71 355.00
  Q 508.52 339.18 512.81 322.15
  C 514.76 314.39 515.53 305.58 516.54 297.24
  Z"
/>
<path fill="#110122" d="
  M 383.43 391.25
  C 372.76 390.34 363.94 386.65 357.42 378.06
  A 0.69 0.68 45.9 0 0 356.34 378.04
  C 349.35 386.65 341.22 389.66 330.50 391.52
  C 314.43 392.41 299.49 385.90 291.20 371.78
  C 288.00 366.33 287.13 358.84 292.34 354.34
  Q 294.94 352.09 298.76 352.71
  C 304.74 353.67 306.46 361.53 309.95 365.60
  C 318.90 376.04 339.00 373.91 345.13 361.50
  C 347.51 356.69 347.15 350.25 346.78 344.74
  A 0.92 0.91 -2.6 0 0 345.84 343.89
  C 332.80 344.23 323.34 332.50 322.50 320.80
  C 321.63 308.72 331.71 298.83 343.50 298.80
  Q 355.88 298.77 368.25 298.81
  C 387.55 298.87 398.12 318.48 386.62 334.44
  Q 380.07 343.53 366.98 344.40
  Q 366.51 344.43 366.51 344.91
  C 366.49 351.94 365.28 358.81 370.53 364.71
  C 379.58 374.86 395.42 374.93 404.26 364.44
  C 407.73 360.33 407.66 354.29 413.82 352.61
  C 419.40 351.08 423.75 356.88 424.29 361.97
  C 425.06 369.28 418.57 377.84 413.24 382.26
  C 403.68 390.16 394.96 391.38 383.43 391.25
  Z
  M 345.2284 320.9990
  A 8.28 7.93 66.6 0 0 349.2178 310.2506
  A 8.28 7.93 66.6 0 0 338.6516 305.8010
  A 8.28 7.93 66.6 0 0 334.6622 316.5494
  A 8.28 7.93 66.6 0 0 345.2284 320.9990
  Z"
/>
<ellipse fill="#ffffff" cx="0.00" cy="0.00" transform="translate(341.94,313.40) rotate(66.6)" rx="8.28" ry="7.93"/>
<path fill="#fe6672" d="
  M 383.43 391.25
  C 376.80 408.50 357.85 416.45 341.73 406.27
  Q 333.40 401.01 330.50 391.52
  C 341.22 389.66 349.35 386.65 356.34 378.04
  A 0.69 0.68 45.9 0 1 357.42 378.06
  C 363.94 386.65 372.76 390.34 383.43 391.25
  Z"
/>
<path fill="#ffffff" d="
  M 315.78 483.71
  Q 315.96 483.48 315.65 483.18
  Q 315.36 482.90 315.64 482.62
  Q 315.86 482.40 316.26 482.50
  Q 320.56 483.60 324.70 485.19
  Q 327.78 486.38 329.67 487.09
  Q 333.39 488.51 330.03 486.37
  C 327.76 484.92 325.40 483.35 322.83 482.20
  C 311.70 477.21 302.31 473.40 292.75 470.62
  C 291.74 470.33 291.02 469.43 289.92 469.07
  C 285.99 467.82 281.70 466.65 278.02 464.82
  C 273.18 462.41 268.41 461.16 264.31 459.29
  Q 261.57 458.04 260.73 457.74
  C 240.29 450.68 220.11 442.46 200.07 434.91
  C 189.72 431.01 175.91 425.27 163.58 420.98
  C 156.15 418.39 149.05 415.03 141.70 412.06
  Q 143.11 405.89 147.78 404.67
  C 152.37 403.47 163.25 408.27 167.14 409.84
  C 198.88 422.66 228.00 433.53 262.49 447.96
  C 274.78 453.11 288.96 459.55 298.75 464.57
  C 311.71 471.21 327.20 481.07 339.30 492.41
  A 0.11 0.11 0.0 0 1 339.18 492.60
  L 315.78 483.71
  Z"
/>
<path fill="#ffffff" d="
  M 572.51 412.67
  Q 571.44 413.11 570.19 413.39
  Q 568.77 413.70 567.88 414.06
  C 548.75 421.67 529.49 428.80 510.26 436.14
  Q 508.23 436.92 502.24 438.48
  C 501.49 438.68 500.52 439.73 499.57 440.12
  Q 493.89 442.46 488.09 444.45
  Q 481.17 446.81 476.59 448.71
  Q 470.73 451.14 464.84 453.50
  Q 450.32 459.30 435.59 464.53
  Q 431.70 465.91 427.85 467.39
  C 423.13 469.20 417.04 471.17 411.77 473.48
  C 408.25 475.03 404.09 476.20 401.02 477.73
  Q 391.15 482.62 380.25 486.88
  Q 405.49 467.89 431.99 456.22
  C 468.37 440.18 505.59 426.07 542.70 411.72
  Q 552.17 408.06 561.73 404.66
  C 566.97 402.80 572.16 407.67 572.51 412.67
  Z"
/>
<path fill="#cab5e5" d="
  M 141.70 412.06
  C 149.05 415.03 156.15 418.39 163.58 420.98
  C 175.91 425.27 189.72 431.01 200.07 434.91
  C 220.11 442.46 240.29 450.68 260.73 457.74
  Q 261.57 458.04 264.31 459.29
  C 268.41 461.16 273.18 462.41 278.02 464.82
  C 281.70 466.65 285.99 467.82 289.92 469.07
  C 291.02 469.43 291.74 470.33 292.75 470.62
  C 302.31 473.40 311.70 477.21 322.83 482.20
  C 325.40 483.35 327.76 484.92 330.03 486.37
  Q 333.39 488.51 329.67 487.09
  Q 327.78 486.38 324.70 485.19
  Q 320.56 483.60 316.26 482.50
  Q 315.86 482.40 315.64 482.62
  Q 315.36 482.90 315.65 483.18
  Q 315.96 483.48 315.78 483.71
  Q 303.89 479.23 291.92 474.97
  Q 274.44 468.75 256.88 462.78
  C 244.96 458.73 232.43 454.82 221.08 450.89
  Q 182.05 437.38 143.20 424.66
  A 1.75 1.75 0.0 0 1 141.99 423.04
  L 141.70 412.06
  Z"
/>
<path fill="#cab5e5" d="
  M 572.51 412.67
  L 572.51 423.28
  A 1.18 1.18 0.0 0 1 571.71 424.40
  Q 530.62 438.59 491.26 451.44
  C 452.20 464.19 413.41 478.14 374.66 491.80
  Q 373.89 492.07 374.44 491.47
  Q 377.20 488.49 380.25 486.88
  Q 391.15 482.62 401.02 477.73
  C 404.09 476.20 408.25 475.03 411.77 473.48
  C 417.04 471.17 423.13 469.20 427.85 467.39
  Q 431.70 465.91 435.59 464.53
  Q 450.32 459.30 464.84 453.50
  Q 470.73 451.14 476.59 448.71
  Q 481.17 446.81 488.09 444.45
  Q 493.89 442.46 499.57 440.12
  C 500.52 439.73 501.49 438.68 502.24 438.48
  Q 508.23 436.92 510.26 436.14
  C 529.49 428.80 548.75 421.67 567.88 414.06
  Q 568.77 413.70 570.19 413.39
  Q 571.44 413.11 572.51 412.67
  Z"
/>
<path fill="#ffffff" d="
  M 316.86 517.49
  Q 283.13 506.21 249.95 494.78
  C 234.01 489.28 217.19 484.10 200.90 478.40
  C 183.30 472.24 166.49 466.69 149.27 460.91
  Q 131.25 454.86 120.74 450.47
  Q 119.52 449.95 119.17 448.01
  C 121.93 441.86 126.15 441.35 132.29 443.41
  Q 189.79 462.77 247.31 482.02
  Q 281.92 493.61 316.34 505.74
  Q 316.84 505.92 316.84 506.44
  L 316.86 517.49
  Z"
/>
<path fill="#fe6672" d="
  M 594.78 448.32
  Q 594.71 449.55 594.24 450.48
  A 1.20 1.20 0.0 0 1 593.53 451.08
  Q 589.15 452.48 584.91 454.21
  Q 580.78 455.90 576.33 456.98
  Q 570.46 458.42 564.76 460.47
  Q 552.43 464.91 540.04 469.17
  Q 523.34 474.90 506.53 480.30
  C 493.29 484.56 478.80 489.84 464.74 494.16
  C 452.62 497.89 441.50 502.38 429.74 505.84
  C 419.88 508.74 410.19 512.11 400.27 515.22
  A 1.35 1.35 0.0 0 1 398.54 514.21
  L 398.22 512.70
  L 398.24 506.81
  A 1.95 1.94 -8.8 0 1 399.60 504.96
  Q 415.46 499.92 430.26 494.50
  Q 441.58 490.36 453.04 486.62
  Q 495.35 472.83 537.51 458.61
  C 551.95 453.74 569.14 448.53 582.77 443.50
  C 588.35 441.45 592.96 441.72 594.78 448.32
  Z"
/>
<path fill="#fe6672" d="
  M 119.17 448.01
  Q 119.52 449.95 120.74 450.47
  Q 131.25 454.86 149.27 460.91
  C 166.49 466.69 183.30 472.24 200.90 478.40
  C 217.19 484.10 234.01 489.28 249.95 494.78
  Q 283.13 506.21 316.86 517.49
  L 316.58 688.86
  A 0.89 0.89 0.0 0 1 315.59 689.73
  C 310.35 689.15 305.06 688.51 299.84 687.45
  C 265.02 680.41 230.41 668.56 199.13 651.67
  Q 174.44 638.34 151.43 621.73
  A 0.83 0.82 50.8 0 1 151.57 620.31
  C 177.85 608.55 191.95 580.42 185.57 552.13
  C 178.75 521.88 150.56 502.15 120.09 504.40
  A 0.65 0.65 0.0 0 1 119.39 503.76
  L 119.17 448.01
  Z"
/>
<path fill="#dc3b6c" d="
  M 594.78 448.32
  L 595.06 502.80
  Q 595.07 504.09 593.78 504.20
  Q 590.31 504.50 586.00 504.68
  Q 556.07 505.95 539.06 530.52
  C 525.64 549.91 523.14 573.92 535.09 594.68
  C 541.96 606.61 549.10 614.71 561.58 620.75
  A 0.84 0.83 37.8 0 1 561.76 622.13
  C 550.18 631.98 536.90 640.51 523.27 648.08
  C 515.11 652.61 507.06 657.25 498.62 661.09
  Q 481.88 668.71 474.26 671.58
  Q 437.55 685.38 398.65 690.45
  A 0.67 0.66 86.2 0 1 397.90 689.79
  L 398.22 512.70
  L 398.54 514.21
  A 1.35 1.35 0.0 0 0 400.27 515.22
  C 410.19 512.11 419.88 508.74 429.74 505.84
  C 441.50 502.38 452.62 497.89 464.74 494.16
  C 478.80 489.84 493.29 484.56 506.53 480.30
  Q 523.34 474.90 540.04 469.17
  Q 552.43 464.91 564.76 460.47
  Q 570.46 458.42 576.33 456.98
  Q 580.78 455.90 584.91 454.21
  Q 589.15 452.48 593.53 451.08
  A 1.20 1.20 0.0 0 0 594.24 450.48
  Q 594.71 449.55 594.78 448.32
  Z"
/>
<path fill="#ffffff" d="
  M 360.98 518.19
  L 361.01 528.13
  Q 361.01 528.63 361.50 528.63
  L 361.95 528.62
  L 360.62 528.73
  Q 349.65 529.56 339.30 525.70
  L 339.48 515.56
  A 0.67 0.67 0.0 0 1 340.45 514.97
  Q 349.93 519.65 360.98 518.19
  Z"
/>
<path fill="#cab5e5" d="
  M 374.67 525.44
  Q 368.71 527.96 361.95 528.62
  L 361.50 528.63
  Q 361.01 528.63 361.01 528.13
  L 360.98 518.19
  Q 367.52 517.46 374.04 515.09
  A 0.53 0.52 -10.1 0 1 374.75 515.58
  L 374.67 525.44
  Z"
/>
<path fill="#dc3b6c" d="
  M 374.67 525.44
  L 375.00 612.86
  L 361.21 616.49
  Q 360.47 616.63 360.12 616.39
  Q 359.83 616.19 359.96 615.54
  C 360.40 613.33 359.91 610.94 359.96 609.16
  C 360.32 595.58 359.86 580.15 359.95 568.51
  Q 360.03 559.18 360.11 549.86
  C 360.15 545.57 359.36 539.01 360.04 533.43
  Q 360.17 532.41 359.84 531.14
  Q 359.27 528.94 360.62 528.73
  L 361.95 528.62
  Q 368.71 527.96 374.67 525.44
  Z"
/>
<path fill="#fe6672" d="
  M 339.30 525.70
  Q 349.65 529.56 360.62 528.73
  Q 359.27 528.94 359.84 531.14
  Q 360.17 532.41 360.04 533.43
  C 359.36 539.01 360.15 545.57 360.11 549.86
  Q 360.03 559.18 359.95 568.51
  C 359.86 580.15 360.32 595.58 359.96 609.16
  C 359.91 610.94 360.40 613.33 359.96 615.54
  Q 359.83 616.19 360.12 616.39
  Q 360.47 616.63 361.21 616.49
  Q 361.14 616.67 360.98 616.70
  Q 349.92 617.24 339.30 612.20
  L 339.30 525.70
  Z"
/>
<path fill="#ffffff" d="
  M 149.56 537.42
  Q 150.41 540.58 152.59 543.06
  A 1.70 1.67 -72.1 0 1 153.00 543.88
  C 154.18 549.92 155.27 553.89 153.49 560.71
  C 149.94 574.27 139.87 584.39 128.45 591.42
  Q 123.40 594.53 120.98 596.39
  Q 99.95 573.84 91.87 564.85
  C 89.27 561.95 87.07 558.67 88.69 554.49
  C 98.42 529.38 128.32 519.25 149.56 537.42
  Z"
/>
<path fill="#ffffff" d="
  M 619.90 543.72
  Q 612.61 553.60 605.45 563.52
  Q 604.42 564.95 594.21 580.05
  Q 586.45 591.53 577.16 602.16
  Q 565.23 597.57 557.89 587.10
  Q 552.99 580.12 551.98 570.63
  C 547.73 530.69 595.02 513.51 619.90 543.72
  Z"
/>
<path fill="#cab5e5" d="
  M 149.56 537.42
  C 161.09 548.22 166.18 564.09 160.64 579.04
  C 155.83 592.02 142.92 602.09 129.09 602.98
  A 2.17 2.16 -25.3 0 1 127.48 602.41
  L 120.98 596.39
  Q 123.40 594.53 128.45 591.42
  C 139.87 584.39 149.94 574.27 153.49 560.71
  C 155.27 553.89 154.18 549.92 153.00 543.88
  A 1.70 1.67 -72.1 0 0 152.59 543.06
  Q 150.41 540.58 149.56 537.42
  Z"
/>
<path fill="#cab5e5" d="
  M 619.90 543.72
  Q 623.34 548.36 626.52 555.03
  C 627.53 557.16 625.39 560.03 624.07 561.56
  Q 608.63 579.47 587.90 602.15
  C 585.36 604.94 581.59 603.78 577.16 602.16
  Q 586.45 591.53 594.21 580.05
  Q 604.42 564.95 605.45 563.52
  Q 612.61 553.60 619.90 543.72
  Z"
/>
<path fill="#ffffff" d="
  M 339.30 612.20
  Q 349.92 617.24 360.98 616.70
  Q 361.47 622.36 360.39 627.79
  Q 359.90 627.75 359.75 628.08
  C 352.85 628.09 345.97 625.37 339.33 623.22
  L 339.30 612.20
  Z"
/>
<path fill="#cab5e5" d="
  M 375.00 612.86
  L 374.88 623.29
  C 371.14 624.88 364.28 628.30 360.39 627.79
  Q 361.47 622.36 360.98 616.70
  Q 361.14 616.67 361.21 616.49
  L 375.00 612.86
  Z"
/>
<path fill="#fe6672" d="
  M 339.33 623.22
  C 345.97 625.37 352.85 628.09 359.75 628.08
  Q 359.90 627.93 360.08 627.91
  Q 360.48 627.87 360.47 628.27
  C 360.19 637.15 359.73 646.12 359.80 654.89
  C 359.88 665.20 360.11 675.48 359.84 685.80
  Q 359.72 690.10 360.06 694.41
  L 340.16 694.23
  A 0.85 0.84 0.3 0 1 339.32 693.39
  L 339.33 623.22
  Z"
/>
<path fill="#dc3b6c" d="
  M 374.88 623.29
  L 374.91 693.02
  A 0.94 0.93 -1.0 0 1 374.00 693.95
  L 360.06 694.41
  Q 359.72 690.10 359.84 685.80
  C 360.11 675.48 359.88 665.20 359.80 654.89
  C 359.73 646.12 360.19 637.15 360.47 628.27
  Q 360.48 627.87 360.08 627.91
  Q 359.90 627.93 359.75 628.08
  Q 359.90 627.75 360.39 627.79
  C 364.28 628.30 371.14 624.88 374.88 623.29
  Z"
/>
</svg>
